{
	"asset":{
		"generator":"Khronos glTF Blender I/O v5.1.18",
		"version":"2.0"
	},
	"scene":0,
	"scenes":[
		{
			"extras":{
				"uuid":"f49c3ce8-3e21-4373-980d-7c4988481a53",
				"assets reported":{}
			},
			"name":"Scene",
			"nodes":[
				0
			]
		}
	],
	"nodes":[
		{
			"mesh":0,
			"name":"Cube",
			"scale":[
				0.19188225269317627,
				0.19188225269317627,
				0.19188225269317627
			],
			"translation":[
				0,
				0.23955054581165314,
				0
			]
		}
	],
	"materials":[
		{
			"doubleSided":true,
			"name":"Material.001",
			"pbrMetallicRoughness":{
				"baseColorFactor":[
					0.8002663850784302,
					0.23986589908599854,
					0.026685159653425217,
					1
				],
				"metallicFactor":0,
				"roughnessFactor":0.5
			}
		},
		{
			"doubleSided":true,
			"name":"Material",
			"pbrMetallicRoughness":{
				"baseColorFactor":[
					0.800054669380188,
					0.0007124599651433527,
					0,
					1
				],
				"metallicFactor":0,
				"roughnessFactor":0.5
			}
		}
	],
	"meshes":[
		{
			"name":"Cube.002",
			"primitives":[
				{
					"attributes":{
						"POSITION":0,
						"NORMAL":1,
						"TEXCOORD_0":2,
						"TANGENT":3
					},
					"indices":4,
					"material":0
				},
				{
					"attributes":{
						"POSITION":5,
						"NORMAL":6,
						"TEXCOORD_0":7,
						"TANGENT":8
					},
					"indices":9,
					"material":1
				}
			]
		}
	],
	"accessors":[
		{
			"bufferView":0,
			"componentType":5126,
			"count":40,
			"max":[
				0.43308940529823303,
				2.029128074645996,
				0.43327051401138306
			],
			"min":[
				-0.13965098559856415,
				1.2404969930648804,
				0.05002960190176964
			],
			"type":"VEC3"
		},
		{
			"bufferView":1,
			"componentType":5126,
			"count":40,
			"type":"VEC3"
		},
		{
			"bufferView":2,
			"componentType":5126,
			"count":40,
			"type":"VEC2"
		},
		{
			"bufferView":3,
			"componentType":5126,
			"count":40,
			"type":"VEC4"
		},
		{
			"bufferView":4,
			"componentType":5123,
			"count":84,
			"type":"SCALAR"
		},
		{
			"bufferView":5,
			"componentType":5126,
			"count":40,
			"max":[
				1.1860122680664062,
				1.4399657249450684,
				1.3694889545440674
			],
			"min":[
				-1.1860123872756958,
				-1.4399659633636475,
				-1.369489073753357
			],
			"type":"VEC3"
		},
		{
			"bufferView":6,
			"componentType":5126,
			"count":40,
			"type":"VEC3"
		},
		{
			"bufferView":7,
			"componentType":5126,
			"count":40,
			"type":"VEC2"
		},
		{
			"bufferView":8,
			"componentType":5126,
			"count":40,
			"type":"VEC4"
		},
		{
			"bufferView":9,
			"componentType":5123,
			"count":144,
			"type":"SCALAR"
		}
	],
	"bufferViews":[
		{
			"buffer":0,
			"byteLength":480,
			"byteOffset":0,
			"target":34962
		},
		{
			"buffer":0,
			"byteLength":480,
			"byteOffset":480,
			"target":34962
		},
		{
			"buffer":0,
			"byteLength":320,
			"byteOffset":960,
			"target":34962
		},
		{
			"buffer":0,
			"byteLength":640,
			"byteOffset":1280,
			"target":34962
		},
		{
			"buffer":0,
			"byteLength":168,
			"byteOffset":1920,
			"target":34963
		},
		{
			"buffer":0,
			"byteLength":480,
			"byteOffset":2088,
			"target":34962
		},
		{
			"buffer":0,
			"byteLength":480,
			"byteOffset":2568,
			"target":34962
		},
		{
			"buffer":0,
			"byteLength":320,
			"byteOffset":3048,
			"target":34962
		},
		{
			"buffer":0,
			"byteLength":640,
			"byteOffset":3368,
			"target":34962
		},
		{
			"buffer":0,
			"byteLength":288,
			"byteOffset":4008,
			"target":34963
		}
	],
	"buffers":[
		{
			"byteLength":4296,
			"uri":"apple-22476153c77cd2b5e00f4d20630e06ef.bin"
		}
	]
}
