{
	"asset":{
		"generator":"Khronos glTF Blender I/O v5.1.18",
		"version":"2.0"
	},
	"scene":0,
	"scenes":[
		{
			"name":"Scene",
			"nodes":[
				0,
				1
			]
		}
	],
	"nodes":[
		{
			"mesh":0,
			"name":"Cube",
			"scale":[
				1.7000000476837158,
				1,
				1
			]
		},
		{
			"mesh":1,
			"name":"Cube.001",
			"scale":[
				0.14794951677322388,
				0.14794951677322388,
				0.14794951677322388
			],
			"translation":[
				0,
				0.5699889063835144,
				-0.9999998807907104
			]
		}
	],
	"materials":[
		{
			"doubleSided":true,
			"name":"Material.001",
			"pbrMetallicRoughness":{
				"baseColorFactor":[
					0.8002511262893677,
					0.1782679557800293,
					0.04639309272170067,
					1
				],
				"metallicFactor":0
			}
		},
		{
			"doubleSided":true,
			"name":"Material.002",
			"pbrMetallicRoughness":{
				"baseColorFactor":[
					0.8003076910972595,
					0.5679986476898193,
					0,
					1
				],
				"metallicFactor":0,
				"roughnessFactor":0.5
			}
		}
	],
	"meshes":[
		{
			"name":"Cube",
			"primitives":[
				{
					"attributes":{
						"POSITION":0,
						"NORMAL":1,
						"TEXCOORD_0":2
					},
					"indices":3,
					"material":0
				}
			]
		},
		{
			"name":"Cube.001",
			"primitives":[
				{
					"attributes":{
						"POSITION":4,
						"NORMAL":5,
						"TEXCOORD_0":6
					},
					"indices":7,
					"material":1
				}
			]
		}
	],
	"accessors":[
		{
			"bufferView":0,
			"componentType":5126,
			"count":92,
			"max":[
				1.0000001192092896,
				1.8046163320541382,
				0.9999998807907104
			],
			"min":[
				-1,
				-0.9999998807907104,
				-0.9999998807907104
			],
			"type":"VEC3"
		},
		{
			"bufferView":1,
			"componentType":5126,
			"count":92,
			"type":"VEC3"
		},
		{
			"bufferView":2,
			"componentType":5126,
			"count":92,
			"type":"VEC2"
		},
		{
			"bufferView":3,
			"componentType":5123,
			"count":234,
			"type":"SCALAR"
		},
		{
			"bufferView":4,
			"componentType":5126,
			"count":180,
			"max":[
				1,
				1.8581708669662476,
				-1.1920928955078125e-07
			],
			"min":[
				-1,
				-1.2924296855926514,
				-1
			],
			"type":"VEC3"
		},
		{
			"bufferView":5,
			"componentType":5126,
			"count":180,
			"type":"VEC3"
		},
		{
			"bufferView":6,
			"componentType":5126,
			"count":180,
			"type":"VEC2"
		},
		{
			"bufferView":7,
			"componentType":5123,
			"count":324,
			"type":"SCALAR"
		}
	],
	"bufferViews":[
		{
			"buffer":0,
			"byteLength":1104,
			"byteOffset":0,
			"target":34962
		},
		{
			"buffer":0,
			"byteLength":1104,
			"byteOffset":1104,
			"target":34962
		},
		{
			"buffer":0,
			"byteLength":736,
			"byteOffset":2208,
			"target":34962
		},
		{
			"buffer":0,
			"byteLength":468,
			"byteOffset":2944,
			"target":34963
		},
		{
			"buffer":0,
			"byteLength":2160,
			"byteOffset":3412,
			"target":34962
		},
		{
			"buffer":0,
			"byteLength":2160,
			"byteOffset":5572,
			"target":34962
		},
		{
			"buffer":0,
			"byteLength":1440,
			"byteOffset":7732,
			"target":34962
		},
		{
			"buffer":0,
			"byteLength":648,
			"byteOffset":9172,
			"target":34963
		}
	],
	"buffers":[
		{
			"byteLength":9820,
			"uri":"chest-06f20e935f122db5ee7836bd1658797a.bin"
		}
	]
}
