{
	"asset":{
		"generator":"Khronos glTF Blender I/O v5.1.18",
		"version":"2.0"
	},
	"scene":0,
	"scenes":[
		{
			"name":"Scene",
			"nodes":[
				0
			]
		}
	],
	"nodes":[
		{
			"mesh":0,
			"name":"Sword_Mesh"
		}
	],
	"materials":[
		{
			"doubleSided":true,
			"name":"Material.001",
			"pbrMetallicRoughness":{
				"baseColorFactor":[
					0.03452222794294357,
					0.012469114735722542,
					0.004667330998927355,
					1
				],
				"metallicFactor":0,
				"roughnessFactor":0.5
			}
		},
		{
			"doubleSided":true,
			"name":"Material.002",
			"pbrMetallicRoughness":{
				"roughnessFactor":0.27165353298187256
			}
		}
	],
	"meshes":[
		{
			"name":"Cylinder.006",
			"primitives":[
				{
					"attributes":{
						"POSITION":0,
						"NORMAL":1,
						"TEXCOORD_0":2,
						"TANGENT":3
					},
					"indices":4,
					"material":0
				},
				{
					"attributes":{
						"POSITION":5,
						"NORMAL":6,
						"TEXCOORD_0":7,
						"TANGENT":8
					},
					"indices":9,
					"material":1
				}
			]
		}
	],
	"accessors":[
		{
			"bufferView":0,
			"componentType":5126,
			"count":2084,
			"max":[
				0.021542822942137718,
				0.13435062766075134,
				0.10042080283164978
			],
			"min":[
				-0.02149980328977108,
				-0.19486385583877563,
				-0.10042082518339157
			],
			"type":"VEC3"
		},
		{
			"bufferView":1,
			"componentType":5126,
			"count":2084,
			"type":"VEC3"
		},
		{
			"bufferView":2,
			"componentType":5126,
			"count":2084,
			"type":"VEC2"
		},
		{
			"bufferView":3,
			"componentType":5126,
			"count":2084,
			"type":"VEC4"
		},
		{
			"bufferView":4,
			"componentType":5123,
			"count":3144,
			"type":"SCALAR"
		},
		{
			"bufferView":5,
			"componentType":5126,
			"count":448,
			"max":[
				0.023927967995405197,
				1.0847500562667847,
				0.023830614984035492
			],
			"min":[
				-0.023733679205179214,
				-0.21868760883808136,
				-0.02383100986480713
			],
			"type":"VEC3"
		},
		{
			"bufferView":6,
			"componentType":5126,
			"count":448,
			"type":"VEC3"
		},
		{
			"bufferView":7,
			"componentType":5126,
			"count":448,
			"type":"VEC2"
		},
		{
			"bufferView":8,
			"componentType":5126,
			"count":448,
			"type":"VEC4"
		},
		{
			"bufferView":9,
			"componentType":5123,
			"count":912,
			"type":"SCALAR"
		}
	],
	"bufferViews":[
		{
			"buffer":0,
			"byteLength":25008,
			"byteOffset":0,
			"target":34962
		},
		{
			"buffer":0,
			"byteLength":25008,
			"byteOffset":25008,
			"target":34962
		},
		{
			"buffer":0,
			"byteLength":16672,
			"byteOffset":50016,
			"target":34962
		},
		{
			"buffer":0,
			"byteLength":33344,
			"byteOffset":66688,
			"target":34962
		},
		{
			"buffer":0,
			"byteLength":6288,
			"byteOffset":100032,
			"target":34963
		},
		{
			"buffer":0,
			"byteLength":5376,
			"byteOffset":106320,
			"target":34962
		},
		{
			"buffer":0,
			"byteLength":5376,
			"byteOffset":111696,
			"target":34962
		},
		{
			"buffer":0,
			"byteLength":3584,
			"byteOffset":117072,
			"target":34962
		},
		{
			"buffer":0,
			"byteLength":7168,
			"byteOffset":120656,
			"target":34962
		},
		{
			"buffer":0,
			"byteLength":1824,
			"byteOffset":127824,
			"target":34963
		}
	],
	"buffers":[
		{
			"byteLength":129648,
			"uri":"iron_sword-b5af5754dc4619590efd74945c02ff93.bin"
		}
	]
}
