{
	"asset":{
		"generator":"Khronos glTF Blender I/O v5.1.18",
		"version":"2.0"
	},
	"scene":0,
	"scenes":[
		{
			"extras":{
				"uuid":"5d462d28-643c-49ee-81c4-5e8102f88eb9",
				"assets reported":{}
			},
			"name":"Scene",
			"nodes":[
				0
			]
		}
	],
	"nodes":[
		{
			"mesh":0,
			"name":"Sword_Mesh",
			"rotation":[
				0,
				0,
				-0.7071068286895752,
				0.7071068286895752
			],
			"scale":[
				1.535889983177185,
				1.535889983177185,
				1.535889983177185
			],
			"translation":[
				-0.37408778071403503,
				0.0381866954267025,
				0
			]
		}
	],
	"materials":[
		{
			"doubleSided":true,
			"name":"Material.001",
			"pbrMetallicRoughness":{
				"baseColorFactor":[
					0.03452222794294357,
					0.012469114735722542,
					0.004667330998927355,
					1
				],
				"metallicFactor":0,
				"roughnessFactor":0.5
			}
		},
		{
			"doubleSided":true,
			"name":"Material.002",
			"pbrMetallicRoughness":{
				"roughnessFactor":0.27165353298187256
			}
		}
	],
	"meshes":[
		{
			"name":"Cylinder.006",
			"primitives":[
				{
					"attributes":{
						"POSITION":0,
						"NORMAL":1,
						"TEXCOORD_0":2,
						"TANGENT":3
					},
					"indices":4,
					"material":0
				},
				{
					"attributes":{
						"POSITION":5,
						"NORMAL":6,
						"TEXCOORD_0":7,
						"TANGENT":8
					},
					"indices":9,
					"material":1
				}
			]
		}
	],
	"accessors":[
		{
			"bufferView":0,
			"componentType":5126,
			"count":966,
			"max":[
				0.021542822942137718,
				0.13435062766075134,
				0.10042080283164978
			],
			"min":[
				-0.02149980328977108,
				-0.19486385583877563,
				-0.10042082518339157
			],
			"type":"VEC3"
		},
		{
			"bufferView":1,
			"componentType":5126,
			"count":966,
			"type":"VEC3"
		},
		{
			"bufferView":2,
			"componentType":5126,
			"count":966,
			"type":"VEC2"
		},
		{
			"bufferView":3,
			"componentType":5126,
			"count":966,
			"type":"VEC4"
		},
		{
			"bufferView":4,
			"componentType":5123,
			"count":3144,
			"type":"SCALAR"
		},
		{
			"bufferView":5,
			"componentType":5126,
			"count":251,
			"max":[
				0.023927967995405197,
				1.0847500562667847,
				0.023830614984035492
			],
			"min":[
				-0.023733679205179214,
				-0.21868760883808136,
				-0.02383100986480713
			],
			"type":"VEC3"
		},
		{
			"bufferView":6,
			"componentType":5126,
			"count":251,
			"type":"VEC3"
		},
		{
			"bufferView":7,
			"componentType":5126,
			"count":251,
			"type":"VEC2"
		},
		{
			"bufferView":8,
			"componentType":5126,
			"count":251,
			"type":"VEC4"
		},
		{
			"bufferView":9,
			"componentType":5123,
			"count":912,
			"type":"SCALAR"
		}
	],
	"bufferViews":[
		{
			"buffer":0,
			"byteLength":11592,
			"byteOffset":0,
			"target":34962
		},
		{
			"buffer":0,
			"byteLength":11592,
			"byteOffset":11592,
			"target":34962
		},
		{
			"buffer":0,
			"byteLength":7728,
			"byteOffset":23184,
			"target":34962
		},
		{
			"buffer":0,
			"byteLength":15456,
			"byteOffset":30912,
			"target":34962
		},
		{
			"buffer":0,
			"byteLength":6288,
			"byteOffset":46368,
			"target":34963
		},
		{
			"buffer":0,
			"byteLength":3012,
			"byteOffset":52656,
			"target":34962
		},
		{
			"buffer":0,
			"byteLength":3012,
			"byteOffset":55668,
			"target":34962
		},
		{
			"buffer":0,
			"byteLength":2008,
			"byteOffset":58680,
			"target":34962
		},
		{
			"buffer":0,
			"byteLength":4016,
			"byteOffset":60688,
			"target":34962
		},
		{
			"buffer":0,
			"byteLength":1824,
			"byteOffset":64704,
			"target":34963
		}
	],
	"buffers":[
		{
			"byteLength":66528,
			"uri":"iron_sword-5e8b3b045bef4ead2b8f7ea04a6bc830.bin"
		}
	]
}
