{
	"asset":{
		"generator":"Khronos glTF Blender I/O v5.1.18",
		"version":"2.0"
	},
	"extensionsUsed":[
		"KHR_lights_punctual"
	],
	"extensionsRequired":[
		"KHR_lights_punctual"
	],
	"extensions":{
		"KHR_lights_punctual":{
			"lights":[
				{
					"color":[
						1,
						1,
						1
					],
					"intensity":79.57747154594767,
					"type":"point",
					"name":"Light"
				},
				{
					"color":[
						1,
						1,
						1
					],
					"intensity":79.57747154594767,
					"type":"point",
					"name":"Light.001"
				}
			]
		}
	},
	"scene":0,
	"scenes":[
		{
			"extras":{
				"uuid":"bf93946c-6d00-41e9-8714-4832b9a5bec5",
				"assets reported":{}
			},
			"name":"Scene",
			"nodes":[
				0,
				1,
				2,
				3
			]
		}
	],
	"nodes":[
		{
			"extensions":{
				"KHR_lights_punctual":{
					"light":0
				}
			},
			"name":"Light",
			"rotation":[
				-0.28416627645492554,
				0.7269423007965088,
				0.34203392267227173,
				0.5232754945755005
			],
			"translation":[
				5.355914115905762,
				3.521369457244873,
				-0.6357238292694092
			]
		},
		{
			"camera":0,
			"name":"Camera",
			"rotation":[
				-0.20997299253940582,
				0.3857799470424652,
				0.09062844514846802,
				0.8937962055206299
			],
			"translation":[
				7.358891487121582,
				4.958309173583984,
				6.925790786743164
			]
		},
		{
			"extensions":{
				"KHR_lights_punctual":{
					"light":1
				}
			},
			"name":"Light.001",
			"rotation":[
				-0.28416627645492554,
				0.7269423007965088,
				0.34203392267227173,
				0.5232754945755005
			],
			"translation":[
				2.7534806728363037,
				3.8225584030151367,
				5.608803749084473
			]
		},
		{
			"mesh":0,
			"name":"Arrow_Mesh",
			"rotation":[
				-0.417102575302124,
				0.08869300782680511,
				0.36796456575393677,
				0.8262937068939209
			],
			"scale":[
				19.116500854492188,
				19.116500854492188,
				19.116498947143555
			],
			"translation":[
				-0.28132542967796326,
				0.15595924854278564,
				0.1853817254304886
			]
		}
	],
	"cameras":[
		{
			"name":"Camera",
			"perspective":{
				"aspectRatio":1,
				"yfov":0.6911112070083618,
				"zfar":100,
				"znear":0.10000000149011612
			},
			"type":"perspective"
		}
	],
	"materials":[
		{
			"doubleSided":true,
			"name":"Material.005",
			"pbrMetallicRoughness":{
				"baseColorFactor":[
					0.03452222794294357,
					0.012469114735722542,
					0.004667330998927355,
					1
				],
				"metallicFactor":0,
				"roughnessFactor":0.5
			}
		},
		{
			"doubleSided":true,
			"name":"Material.006",
			"pbrMetallicRoughness":{
				"roughnessFactor":0.27165353298187256
			}
		},
		{
			"doubleSided":true,
			"name":"Material.007",
			"pbrMetallicRoughness":{
				"baseColorFactor":[
					0.040229737758636475,
					0.004409507382661104,
					0.005391855724155903,
					1
				],
				"metallicFactor":0,
				"roughnessFactor":0.5
			}
		}
	],
	"meshes":[
		{
			"name":"Cylinder",
			"primitives":[
				{
					"attributes":{
						"POSITION":0,
						"NORMAL":1,
						"TEXCOORD_0":2
					},
					"indices":3,
					"material":0
				},
				{
					"attributes":{
						"POSITION":4,
						"NORMAL":5,
						"TEXCOORD_0":6
					},
					"indices":7,
					"material":1
				},
				{
					"attributes":{
						"POSITION":8,
						"NORMAL":9,
						"TEXCOORD_0":10
					},
					"indices":11,
					"material":2
				}
			]
		}
	],
	"accessors":[
		{
			"bufferView":0,
			"componentType":5126,
			"count":30,
			"max":[
				0.006262557115405798,
				0.004437425173819065,
				0.14158733189105988
			],
			"min":[
				-0.0048937383107841015,
				-0.003957199864089489,
				-0.49506711959838867
			],
			"type":"VEC3"
		},
		{
			"bufferView":1,
			"componentType":5126,
			"count":30,
			"type":"VEC3"
		},
		{
			"bufferView":2,
			"componentType":5126,
			"count":30,
			"type":"VEC2"
		},
		{
			"bufferView":3,
			"componentType":5123,
			"count":48,
			"type":"SCALAR"
		},
		{
			"bufferView":4,
			"componentType":5126,
			"count":119,
			"max":[
				0.008358311839401722,
				0.0070954980328679085,
				0.193186417222023
			],
			"min":[
				-0.009144754149019718,
				-0.007549411617219448,
				-0.5084638595581055
			],
			"type":"VEC3"
		},
		{
			"bufferView":5,
			"componentType":5126,
			"count":119,
			"type":"VEC3"
		},
		{
			"bufferView":6,
			"componentType":5126,
			"count":119,
			"type":"VEC2"
		},
		{
			"bufferView":7,
			"componentType":5123,
			"count":192,
			"type":"SCALAR"
		},
		{
			"bufferView":8,
			"componentType":5126,
			"count":36,
			"max":[
				0.022957775741815567,
				0.013745882548391819,
				0.1976338028907776
			],
			"min":[
				-0.024343283846974373,
				-0.014231055043637753,
				0.1451820433139801
			],
			"type":"VEC3"
		},
		{
			"bufferView":9,
			"componentType":5126,
			"count":36,
			"type":"VEC3"
		},
		{
			"bufferView":10,
			"componentType":5126,
			"count":36,
			"type":"VEC2"
		},
		{
			"bufferView":11,
			"componentType":5123,
			"count":60,
			"type":"SCALAR"
		}
	],
	"bufferViews":[
		{
			"buffer":0,
			"byteLength":360,
			"byteOffset":0,
			"target":34962
		},
		{
			"buffer":0,
			"byteLength":360,
			"byteOffset":360,
			"target":34962
		},
		{
			"buffer":0,
			"byteLength":240,
			"byteOffset":720,
			"target":34962
		},
		{
			"buffer":0,
			"byteLength":96,
			"byteOffset":960,
			"target":34963
		},
		{
			"buffer":0,
			"byteLength":1428,
			"byteOffset":1056,
			"target":34962
		},
		{
			"buffer":0,
			"byteLength":1428,
			"byteOffset":2484,
			"target":34962
		},
		{
			"buffer":0,
			"byteLength":952,
			"byteOffset":3912,
			"target":34962
		},
		{
			"buffer":0,
			"byteLength":384,
			"byteOffset":4864,
			"target":34963
		},
		{
			"buffer":0,
			"byteLength":432,
			"byteOffset":5248,
			"target":34962
		},
		{
			"buffer":0,
			"byteLength":432,
			"byteOffset":5680,
			"target":34962
		},
		{
			"buffer":0,
			"byteLength":288,
			"byteOffset":6112,
			"target":34962
		},
		{
			"buffer":0,
			"byteLength":120,
			"byteOffset":6400,
			"target":34963
		}
	],
	"buffers":[
		{
			"byteLength":6520,
			"uri":"item_maker-0fd690a0b8fa0b0ea20c4767850ae0ef.bin"
		}
	]
}
