{
	"asset":{
		"generator":"Khronos glTF Blender I/O v5.1.18",
		"version":"2.0"
	},
	"scene":0,
	"scenes":[
		{
			"extras":{
				"uuid":"76d3cd36-4f37-4e69-956e-8a1cdd762f46",
				"assets reported":{}
			},
			"name":"Scene",
			"nodes":[
				0
			]
		}
	],
	"nodes":[
		{
			"mesh":0,
			"name":"rock1 -col",
			"scale":[
				0.7236127853393555,
				0.7236127853393555,
				0.7236127853393555
			]
		}
	],
	"materials":[
		{
			"doubleSided":true,
			"name":"rok",
			"pbrMetallicRoughness":{
				"baseColorFactor":[
					0.4303799569606781,
					0.4303799569606781,
					0.4303799569606781,
					1
				],
				"metallicFactor":0,
				"roughnessFactor":0.5
			}
		}
	],
	"meshes":[
		{
			"name":"Cube.001",
			"primitives":[
				{
					"attributes":{
						"POSITION":0,
						"NORMAL":1,
						"TEXCOORD_0":2,
						"TANGENT":3
					},
					"indices":4,
					"material":0
				}
			]
		}
	],
	"accessors":[
		{
			"bufferView":0,
			"componentType":5126,
			"count":125,
			"max":[
				3.7407472133636475,
				2.35196852684021,
				2.2207682132720947
			],
			"min":[
				-3.8735196590423584,
				-0.7075462341308594,
				-2.5407555103302
			],
			"type":"VEC3"
		},
		{
			"bufferView":1,
			"componentType":5126,
			"count":125,
			"type":"VEC3"
		},
		{
			"bufferView":2,
			"componentType":5126,
			"count":125,
			"type":"VEC2"
		},
		{
			"bufferView":3,
			"componentType":5126,
			"count":125,
			"type":"VEC4"
		},
		{
			"bufferView":4,
			"componentType":5123,
			"count":576,
			"type":"SCALAR"
		}
	],
	"bufferViews":[
		{
			"buffer":0,
			"byteLength":1500,
			"byteOffset":0,
			"target":34962
		},
		{
			"buffer":0,
			"byteLength":1500,
			"byteOffset":1500,
			"target":34962
		},
		{
			"buffer":0,
			"byteLength":1000,
			"byteOffset":3000,
			"target":34962
		},
		{
			"buffer":0,
			"byteLength":2000,
			"byteOffset":4000,
			"target":34962
		},
		{
			"buffer":0,
			"byteLength":1152,
			"byteOffset":6000,
			"target":34963
		}
	],
	"buffers":[
		{
			"byteLength":7152,
			"uri":"rock1-9c8b3982a0c2b08672a0c77edb97a40d.bin"
		}
	]
}
