{
	"asset":{
		"generator":"Khronos glTF Blender I/O v5.1.18",
		"version":"2.0"
	},
	"scene":0,
	"scenes":[
		{
			"name":"Scene",
			"nodes":[
				0
			]
		}
	],
	"nodes":[
		{
			"mesh":0,
			"name":"rock1",
			"scale":[
				0.1896550953388214,
				0.1896550953388214,
				0.1896550953388214
			],
			"translation":[
				0,
				0.0712292268872261,
				0
			]
		}
	],
	"materials":[
		{
			"doubleSided":true,
			"name":"rok",
			"pbrMetallicRoughness":{
				"baseColorFactor":[
					0.4303799569606781,
					0.4303799569606781,
					0.4303799569606781,
					1
				],
				"metallicFactor":0,
				"roughnessFactor":0.5
			}
		}
	],
	"meshes":[
		{
			"name":"Mesh",
			"primitives":[
				{
					"attributes":{
						"POSITION":0,
						"NORMAL":1,
						"TEXCOORD_0":2,
						"TANGENT":3
					},
					"indices":4,
					"material":0
				}
			]
		}
	],
	"accessors":[
		{
			"bufferView":0,
			"componentType":5126,
			"count":1152,
			"max":[
				3.8100714683532715,
				2.043138027191162,
				1.6069763898849487
			],
			"min":[
				-3.7453317642211914,
				-0.5119897723197937,
				-3.9047112464904785
			],
			"type":"VEC3"
		},
		{
			"bufferView":1,
			"componentType":5126,
			"count":1152,
			"type":"VEC3"
		},
		{
			"bufferView":2,
			"componentType":5126,
			"count":1152,
			"type":"VEC2"
		},
		{
			"bufferView":3,
			"componentType":5126,
			"count":1152,
			"type":"VEC4"
		},
		{
			"bufferView":4,
			"componentType":5123,
			"count":1728,
			"type":"SCALAR"
		}
	],
	"bufferViews":[
		{
			"buffer":0,
			"byteLength":13824,
			"byteOffset":0,
			"target":34962
		},
		{
			"buffer":0,
			"byteLength":13824,
			"byteOffset":13824,
			"target":34962
		},
		{
			"buffer":0,
			"byteLength":9216,
			"byteOffset":27648,
			"target":34962
		},
		{
			"buffer":0,
			"byteLength":18432,
			"byteOffset":36864,
			"target":34962
		},
		{
			"buffer":0,
			"byteLength":3456,
			"byteOffset":55296,
			"target":34963
		}
	],
	"buffers":[
		{
			"byteLength":58752,
			"uri":"Rok-58d6c024edaae9146b73783a3c5177bf.bin"
		}
	]
}
