{
	"asset":{
		"generator":"Khronos glTF Blender I/O v5.1.18",
		"version":"2.0"
	},
	"scene":0,
	"scenes":[
		{
			"name":"Scene",
			"nodes":[
				0
			]
		}
	],
	"nodes":[
		{
			"mesh":0,
			"name":"TreeMesh -col",
			"scale":[
				0.2025466114282608,
				0.2025466114282608,
				0.2025466114282608
			]
		}
	],
	"materials":[
		{
			"doubleSided":true,
			"name":"wud",
			"pbrMetallicRoughness":{
				"baseColorFactor":[
					0.4303794503211975,
					0.16939198970794678,
					0.02113628014922142,
					1
				],
				"metallicFactor":0,
				"roughnessFactor":0.5
			}
		},
		{
			"doubleSided":true,
			"name":"grass",
			"pbrMetallicRoughness":{
				"baseColorFactor":[
					0.04089664667844772,
					0.8001105785369873,
					0.014536736533045769,
					1
				],
				"metallicFactor":0,
				"roughnessFactor":0.5
			}
		}
	],
	"meshes":[
		{
			"name":"Cube",
			"primitives":[
				{
					"attributes":{
						"POSITION":0,
						"NORMAL":1,
						"TEXCOORD_0":2,
						"TANGENT":3
					},
					"indices":4,
					"material":0
				},
				{
					"attributes":{
						"POSITION":5,
						"NORMAL":6,
						"TEXCOORD_0":7,
						"TANGENT":8
					},
					"indices":9,
					"material":1
				}
			]
		}
	],
	"accessors":[
		{
			"bufferView":0,
			"componentType":5126,
			"count":520,
			"max":[
				9.665388107299805,
				27.59697914123535,
				7.720091819763184
			],
			"min":[
				-8.575735092163086,
				0,
				-7.160636901855469
			],
			"type":"VEC3"
		},
		{
			"bufferView":1,
			"componentType":5126,
			"count":520,
			"type":"VEC3"
		},
		{
			"bufferView":2,
			"componentType":5126,
			"count":520,
			"type":"VEC2"
		},
		{
			"bufferView":3,
			"componentType":5126,
			"count":520,
			"type":"VEC4"
		},
		{
			"bufferView":4,
			"componentType":5123,
			"count":1584,
			"type":"SCALAR"
		},
		{
			"bufferView":5,
			"componentType":5126,
			"count":3095,
			"max":[
				14.136666297912598,
				35.28097152709961,
				13.178604125976562
			],
			"min":[
				-15.265986442565918,
				17.536283493041992,
				-13.181111335754395
			],
			"type":"VEC3"
		},
		{
			"bufferView":6,
			"componentType":5126,
			"count":3095,
			"type":"VEC3"
		},
		{
			"bufferView":7,
			"componentType":5126,
			"count":3095,
			"type":"VEC2"
		},
		{
			"bufferView":8,
			"componentType":5126,
			"count":3095,
			"type":"VEC4"
		},
		{
			"bufferView":9,
			"componentType":5123,
			"count":7200,
			"type":"SCALAR"
		}
	],
	"bufferViews":[
		{
			"buffer":0,
			"byteLength":6240,
			"byteOffset":0,
			"target":34962
		},
		{
			"buffer":0,
			"byteLength":6240,
			"byteOffset":6240,
			"target":34962
		},
		{
			"buffer":0,
			"byteLength":4160,
			"byteOffset":12480,
			"target":34962
		},
		{
			"buffer":0,
			"byteLength":8320,
			"byteOffset":16640,
			"target":34962
		},
		{
			"buffer":0,
			"byteLength":3168,
			"byteOffset":24960,
			"target":34963
		},
		{
			"buffer":0,
			"byteLength":37140,
			"byteOffset":28128,
			"target":34962
		},
		{
			"buffer":0,
			"byteLength":37140,
			"byteOffset":65268,
			"target":34962
		},
		{
			"buffer":0,
			"byteLength":24760,
			"byteOffset":102408,
			"target":34962
		},
		{
			"buffer":0,
			"byteLength":49520,
			"byteOffset":127168,
			"target":34962
		},
		{
			"buffer":0,
			"byteLength":14400,
			"byteOffset":176688,
			"target":34963
		}
	],
	"buffers":[
		{
			"byteLength":191088,
			"uri":"tree1-3d223ebd822140d33fcda7e5ea35aaa2.bin"
		}
	]
}
