{
	"asset":{
		"generator":"Khronos glTF Blender I/O v4.1.62",
		"version":"2.0"
	},
	"scene":0,
	"scenes":[
		{
			"name":"Scene",
			"nodes":[
				0,
				1,
				2,
				3,
				4,
				5
			]
		}
	],
	"nodes":[
		{
			"mesh":0,
			"name":"Cube"
		},
		{
			"mesh":1,
			"name":"Icosphere",
			"scale":[
				1.6288460493087769,
				1.6288460493087769,
				1.6288460493087769
			],
			"translation":[
				-3.8395330905914307,
				25.64150047302246,
				6.700821876525879
			]
		},
		{
			"mesh":2,
			"name":"Icosphere.001",
			"scale":[
				1.5313771963119507,
				1.5313771963119507,
				1.5313771963119507
			],
			"translation":[
				8.057975769042969,
				25.116233825683594,
				3.133507490158081
			]
		},
		{
			"mesh":3,
			"name":"Icosphere.002",
			"scale":[
				1.808150053024292,
				1.808150053024292,
				1.808150053024292
			],
			"translation":[
				-8.088665008544922,
				28.04780387878418,
				-5.990251541137695
			]
		},
		{
			"mesh":4,
			"name":"Icosphere.003",
			"scale":[
				1.2330076694488525,
				1.2330076694488525,
				1.2330076694488525
			],
			"translation":[
				1.2055943012237549,
				22.468698501586914,
				-5.648324012756348
			]
		},
		{
			"mesh":5,
			"name":"Icosphere.004",
			"scale":[
				1.3748409748077393,
				1.3748409748077393,
				1.3748409748077393
			],
			"translation":[
				-0.11457222700119019,
				29.74526023864746,
				-0.2606053352355957
			]
		}
	],
	"materials":[
		{
			"alphaMode":"BLEND",
			"doubleSided":true,
			"name":"wud",
			"pbrMetallicRoughness":{
				"baseColorFactor":[
					0.4303794503211975,
					0.16939198970794678,
					0.02113628014922142,
					1
				],
				"metallicFactor":0,
				"roughnessFactor":0.5
			}
		},
		{
			"doubleSided":true,
			"name":"grass",
			"pbrMetallicRoughness":{
				"baseColorFactor":[
					0.04089664667844772,
					0.8001105785369873,
					0.014536736533045769,
					1
				],
				"metallicFactor":0,
				"roughnessFactor":0.5
			}
		}
	],
	"meshes":[
		{
			"name":"Cube",
			"primitives":[
				{
					"attributes":{
						"POSITION":0,
						"NORMAL":1,
						"TEXCOORD_0":2,
						"TANGENT":3
					},
					"indices":4,
					"material":0
				}
			]
		},
		{
			"name":"Icosphere",
			"primitives":[
				{
					"attributes":{
						"POSITION":5,
						"NORMAL":6,
						"TEXCOORD_0":7,
						"TANGENT":8
					},
					"indices":9,
					"material":1
				}
			]
		},
		{
			"name":"Icosphere.001",
			"primitives":[
				{
					"attributes":{
						"POSITION":10,
						"NORMAL":11,
						"TEXCOORD_0":12,
						"TANGENT":13
					},
					"indices":9,
					"material":1
				}
			]
		},
		{
			"name":"Icosphere.002",
			"primitives":[
				{
					"attributes":{
						"POSITION":14,
						"NORMAL":15,
						"TEXCOORD_0":16,
						"TANGENT":17
					},
					"indices":9,
					"material":1
				}
			]
		},
		{
			"name":"Icosphere.003",
			"primitives":[
				{
					"attributes":{
						"POSITION":18,
						"NORMAL":19,
						"TEXCOORD_0":20,
						"TANGENT":21
					},
					"indices":9,
					"material":1
				}
			]
		},
		{
			"name":"Icosphere.004",
			"primitives":[
				{
					"attributes":{
						"POSITION":22,
						"NORMAL":23,
						"TEXCOORD_0":24,
						"TANGENT":25
					},
					"indices":9,
					"material":1
				}
			]
		}
	],
	"accessors":[
		{
			"bufferView":0,
			"componentType":5126,
			"count":1049,
			"max":[
				9.665388107299805,
				27.59697914123535,
				7.720091819763184
			],
			"min":[
				-8.575735092163086,
				0,
				-7.160636901855469
			],
			"type":"VEC3"
		},
		{
			"bufferView":1,
			"componentType":5126,
			"count":1049,
			"type":"VEC3"
		},
		{
			"bufferView":2,
			"componentType":5126,
			"count":1049,
			"type":"VEC2"
		},
		{
			"bufferView":3,
			"componentType":5126,
			"count":1049,
			"type":"VEC4"
		},
		{
			"bufferView":4,
			"componentType":5123,
			"count":1584,
			"type":"SCALAR"
		},
		{
			"bufferView":5,
			"componentType":5126,
			"count":240,
			"max":[
				4.0895490646362305,
				4.300000190734863,
				4.300000190734863
			],
			"min":[
				-4.0895490646362305,
				-4.300000190734863,
				-4.300000190734863
			],
			"type":"VEC3"
		},
		{
			"bufferView":6,
			"componentType":5126,
			"count":240,
			"type":"VEC3"
		},
		{
			"bufferView":7,
			"componentType":5126,
			"count":240,
			"type":"VEC2"
		},
		{
			"bufferView":8,
			"componentType":5126,
			"count":240,
			"type":"VEC4"
		},
		{
			"bufferView":9,
			"componentType":5123,
			"count":240,
			"type":"SCALAR"
		},
		{
			"bufferView":10,
			"componentType":5126,
			"count":240,
			"max":[
				4.0895490646362305,
				4.300000190734863,
				4.300000190734863
			],
			"min":[
				-4.0895490646362305,
				-4.300000190734863,
				-4.300000190734863
			],
			"type":"VEC3"
		},
		{
			"bufferView":11,
			"componentType":5126,
			"count":240,
			"type":"VEC3"
		},
		{
			"bufferView":12,
			"componentType":5126,
			"count":240,
			"type":"VEC2"
		},
		{
			"bufferView":13,
			"componentType":5126,
			"count":240,
			"type":"VEC4"
		},
		{
			"bufferView":14,
			"componentType":5126,
			"count":240,
			"max":[
				4.0895490646362305,
				4.300000190734863,
				4.300000190734863
			],
			"min":[
				-4.0895490646362305,
				-4.300000190734863,
				-4.300000190734863
			],
			"type":"VEC3"
		},
		{
			"bufferView":15,
			"componentType":5126,
			"count":240,
			"type":"VEC3"
		},
		{
			"bufferView":16,
			"componentType":5126,
			"count":240,
			"type":"VEC2"
		},
		{
			"bufferView":17,
			"componentType":5126,
			"count":240,
			"type":"VEC4"
		},
		{
			"bufferView":18,
			"componentType":5126,
			"count":240,
			"max":[
				4.0895490646362305,
				4.300000190734863,
				4.300000190734863
			],
			"min":[
				-4.0895490646362305,
				-4.300000190734863,
				-4.300000190734863
			],
			"type":"VEC3"
		},
		{
			"bufferView":19,
			"componentType":5126,
			"count":240,
			"type":"VEC3"
		},
		{
			"bufferView":20,
			"componentType":5126,
			"count":240,
			"type":"VEC2"
		},
		{
			"bufferView":21,
			"componentType":5126,
			"count":240,
			"type":"VEC4"
		},
		{
			"bufferView":22,
			"componentType":5126,
			"count":240,
			"max":[
				4.0895490646362305,
				4.300000190734863,
				4.300000190734863
			],
			"min":[
				-4.0895490646362305,
				-4.300000190734863,
				-4.300000190734863
			],
			"type":"VEC3"
		},
		{
			"bufferView":23,
			"componentType":5126,
			"count":240,
			"type":"VEC3"
		},
		{
			"bufferView":24,
			"componentType":5126,
			"count":240,
			"type":"VEC2"
		},
		{
			"bufferView":25,
			"componentType":5126,
			"count":240,
			"type":"VEC4"
		}
	],
	"bufferViews":[
		{
			"buffer":0,
			"byteLength":12588,
			"byteOffset":0,
			"target":34962
		},
		{
			"buffer":0,
			"byteLength":12588,
			"byteOffset":12588,
			"target":34962
		},
		{
			"buffer":0,
			"byteLength":8392,
			"byteOffset":25176,
			"target":34962
		},
		{
			"buffer":0,
			"byteLength":16784,
			"byteOffset":33568,
			"target":34962
		},
		{
			"buffer":0,
			"byteLength":3168,
			"byteOffset":50352,
			"target":34963
		},
		{
			"buffer":0,
			"byteLength":2880,
			"byteOffset":53520,
			"target":34962
		},
		{
			"buffer":0,
			"byteLength":2880,
			"byteOffset":56400,
			"target":34962
		},
		{
			"buffer":0,
			"byteLength":1920,
			"byteOffset":59280,
			"target":34962
		},
		{
			"buffer":0,
			"byteLength":3840,
			"byteOffset":61200,
			"target":34962
		},
		{
			"buffer":0,
			"byteLength":480,
			"byteOffset":65040,
			"target":34963
		},
		{
			"buffer":0,
			"byteLength":2880,
			"byteOffset":65520,
			"target":34962
		},
		{
			"buffer":0,
			"byteLength":2880,
			"byteOffset":68400,
			"target":34962
		},
		{
			"buffer":0,
			"byteLength":1920,
			"byteOffset":71280,
			"target":34962
		},
		{
			"buffer":0,
			"byteLength":3840,
			"byteOffset":73200,
			"target":34962
		},
		{
			"buffer":0,
			"byteLength":2880,
			"byteOffset":77040,
			"target":34962
		},
		{
			"buffer":0,
			"byteLength":2880,
			"byteOffset":79920,
			"target":34962
		},
		{
			"buffer":0,
			"byteLength":1920,
			"byteOffset":82800,
			"target":34962
		},
		{
			"buffer":0,
			"byteLength":3840,
			"byteOffset":84720,
			"target":34962
		},
		{
			"buffer":0,
			"byteLength":2880,
			"byteOffset":88560,
			"target":34962
		},
		{
			"buffer":0,
			"byteLength":2880,
			"byteOffset":91440,
			"target":34962
		},
		{
			"buffer":0,
			"byteLength":1920,
			"byteOffset":94320,
			"target":34962
		},
		{
			"buffer":0,
			"byteLength":3840,
			"byteOffset":96240,
			"target":34962
		},
		{
			"buffer":0,
			"byteLength":2880,
			"byteOffset":100080,
			"target":34962
		},
		{
			"buffer":0,
			"byteLength":2880,
			"byteOffset":102960,
			"target":34962
		},
		{
			"buffer":0,
			"byteLength":1920,
			"byteOffset":105840,
			"target":34962
		},
		{
			"buffer":0,
			"byteLength":3840,
			"byteOffset":107760,
			"target":34962
		}
	],
	"buffers":[
		{
			"byteLength":111600,
			"uri":"tree1-b41d86f43ca645e5fe751e224783da98.bin"
		}
	]
}
