{
	"asset":{
		"generator":"Khronos glTF Blender I/O v5.1.18",
		"version":"2.0"
	},
	"scene":0,
	"scenes":[
		{
			"extras":{
				"uuid":"60910910-8b48-4be2-989d-d443a337da23",
				"assets reported":{}
			},
			"name":"Scene",
			"nodes":[
				0
			]
		}
	],
	"nodes":[
		{
			"mesh":0,
			"name":"Choppy",
			"rotation":[
				0,
				0,
				-0.7071068286895752,
				0.7071068286895752
			],
			"scale":[
				0.05571010336279869,
				0.05571010336279869,
				0.05571010336279869
			],
			"translation":[
				0.269507497549057,
				0.05065549165010452,
				0
			]
		}
	],
	"materials":[
		{
			"doubleSided":true,
			"name":"Material",
			"pbrMetallicRoughness":{
				"baseColorFactor":[
					0.8002511262893677,
					0.1782679557800293,
					0.04639309272170067,
					1
				],
				"metallicFactor":0
			}
		}
	],
	"meshes":[
		{
			"name":"Cube",
			"primitives":[
				{
					"attributes":{
						"POSITION":0,
						"NORMAL":1,
						"TEXCOORD_0":2,
						"TANGENT":3
					},
					"indices":4,
					"material":0
				}
			]
		}
	],
	"accessors":[
		{
			"bufferView":0,
			"componentType":5126,
			"count":313,
			"max":[
				0.9166667461395264,
				6.488441467285156,
				8.08508014678955
			],
			"min":[
				-0.9166667461395264,
				-16.0686092376709,
				-1.6439948081970215
			],
			"type":"VEC3"
		},
		{
			"bufferView":1,
			"componentType":5126,
			"count":313,
			"type":"VEC3"
		},
		{
			"bufferView":2,
			"componentType":5126,
			"count":313,
			"type":"VEC2"
		},
		{
			"bufferView":3,
			"componentType":5126,
			"count":313,
			"type":"VEC4"
		},
		{
			"bufferView":4,
			"componentType":5123,
			"count":960,
			"type":"SCALAR"
		}
	],
	"bufferViews":[
		{
			"buffer":0,
			"byteLength":3756,
			"byteOffset":0,
			"target":34962
		},
		{
			"buffer":0,
			"byteLength":3756,
			"byteOffset":3756,
			"target":34962
		},
		{
			"buffer":0,
			"byteLength":2504,
			"byteOffset":7512,
			"target":34962
		},
		{
			"buffer":0,
			"byteLength":5008,
			"byteOffset":10016,
			"target":34962
		},
		{
			"buffer":0,
			"byteLength":1920,
			"byteOffset":15024,
			"target":34963
		}
	],
	"buffers":[
		{
			"byteLength":16944,
			"uri":"wooden_axe-7931672f426200fd1b135e87062ed361.bin"
		}
	]
}
