{
	"asset":{
		"generator":"Khronos glTF Blender I/O v4.1.62",
		"version":"2.0"
	},
	"scene":0,
	"scenes":[
		{
			"name":"Scene",
			"nodes":[
				0
			]
		}
	],
	"nodes":[
		{
			"mesh":0,
			"name":"World -col",
			"scale":[
				5.111285209655762,
				11.69454574584961,
				9.28140926361084
			],
			"translation":[
				-2.6923885345458984,
				-0.21766233444213867,
				-0.012355402112007141
			]
		}
	],
	"materials":[
		{
			"doubleSided":true,
			"name":"Material.002",
			"pbrMetallicRoughness":{
				"baseColorFactor":[
					0.4200223684310913,
					0.191705122590065,
					0.015398704446852207,
					1
				],
				"metallicFactor":0,
				"roughnessFactor":0.5
			}
		},
		{
			"doubleSided":true,
			"name":"Material.004",
			"pbrMetallicRoughness":{
				"baseColorFactor":[
					0.8000000715255737,
					0.25049257278442383,
					0.05629054456949234,
					1
				],
				"metallicFactor":0
			}
		},
		{
			"doubleSided":true,
			"name":"Material.005",
			"pbrMetallicRoughness":{
				"baseColorFactor":[
					0.08353060483932495,
					0.08353060483932495,
					0.08353060483932495,
					1
				],
				"metallicFactor":0,
				"roughnessFactor":0.5
			}
		}
	],
	"meshes":[
		{
			"name":"Plane",
			"primitives":[
				{
					"attributes":{
						"POSITION":0,
						"NORMAL":1,
						"TEXCOORD_0":2,
						"TANGENT":3
					},
					"indices":4,
					"material":0
				},
				{
					"attributes":{
						"POSITION":5,
						"NORMAL":6,
						"TEXCOORD_0":7,
						"TANGENT":8
					},
					"indices":9,
					"material":1
				},
				{
					"attributes":{
						"POSITION":10,
						"NORMAL":11,
						"TEXCOORD_0":12,
						"TANGENT":13
					},
					"indices":14,
					"material":2
				}
			]
		}
	],
	"accessors":[
		{
			"bufferView":0,
			"componentType":5126,
			"count":4,
			"max":[
				2.7393035888671875,
				0,
				2.874786615371704
			],
			"min":[
				-6.473587989807129,
				0,
				-2.874786615371704
			],
			"type":"VEC3"
		},
		{
			"bufferView":1,
			"componentType":5126,
			"count":4,
			"type":"VEC3"
		},
		{
			"bufferView":2,
			"componentType":5126,
			"count":4,
			"type":"VEC2"
		},
		{
			"bufferView":3,
			"componentType":5126,
			"count":4,
			"type":"VEC4"
		},
		{
			"bufferView":4,
			"componentType":5123,
			"count":6,
			"type":"SCALAR"
		},
		{
			"bufferView":5,
			"componentType":5126,
			"count":272,
			"max":[
				-1.2297399044036865,
				0.5477710962295532,
				0.462171733379364
			],
			"min":[
				-2.282468557357788,
				0.01820671372115612,
				-0.46377643942832947
			],
			"type":"VEC3"
		},
		{
			"bufferView":6,
			"componentType":5126,
			"count":272,
			"type":"VEC3"
		},
		{
			"bufferView":7,
			"componentType":5126,
			"count":272,
			"type":"VEC2"
		},
		{
			"bufferView":8,
			"componentType":5126,
			"count":272,
			"type":"VEC4"
		},
		{
			"bufferView":9,
			"componentType":5123,
			"count":552,
			"type":"SCALAR"
		},
		{
			"bufferView":10,
			"componentType":5126,
			"count":4420,
			"max":[
				-1.5520336627960205,
				0.5071982741355896,
				1.090148687362671
			],
			"min":[
				-2.0604312419891357,
				0.4272555708885193,
				-1.4600359201431274
			],
			"type":"VEC3"
		},
		{
			"bufferView":11,
			"componentType":5126,
			"count":4420,
			"type":"VEC3"
		},
		{
			"bufferView":12,
			"componentType":5126,
			"count":4420,
			"type":"VEC2"
		},
		{
			"bufferView":13,
			"componentType":5126,
			"count":4420,
			"type":"VEC4"
		},
		{
			"bufferView":14,
			"componentType":5123,
			"count":24192,
			"type":"SCALAR"
		}
	],
	"bufferViews":[
		{
			"buffer":0,
			"byteLength":48,
			"byteOffset":0,
			"target":34962
		},
		{
			"buffer":0,
			"byteLength":48,
			"byteOffset":48,
			"target":34962
		},
		{
			"buffer":0,
			"byteLength":32,
			"byteOffset":96,
			"target":34962
		},
		{
			"buffer":0,
			"byteLength":64,
			"byteOffset":128,
			"target":34962
		},
		{
			"buffer":0,
			"byteLength":12,
			"byteOffset":192,
			"target":34963
		},
		{
			"buffer":0,
			"byteLength":3264,
			"byteOffset":204,
			"target":34962
		},
		{
			"buffer":0,
			"byteLength":3264,
			"byteOffset":3468,
			"target":34962
		},
		{
			"buffer":0,
			"byteLength":2176,
			"byteOffset":6732,
			"target":34962
		},
		{
			"buffer":0,
			"byteLength":4352,
			"byteOffset":8908,
			"target":34962
		},
		{
			"buffer":0,
			"byteLength":1104,
			"byteOffset":13260,
			"target":34963
		},
		{
			"buffer":0,
			"byteLength":53040,
			"byteOffset":14364,
			"target":34962
		},
		{
			"buffer":0,
			"byteLength":53040,
			"byteOffset":67404,
			"target":34962
		},
		{
			"buffer":0,
			"byteLength":35360,
			"byteOffset":120444,
			"target":34962
		},
		{
			"buffer":0,
			"byteLength":70720,
			"byteOffset":155804,
			"target":34962
		},
		{
			"buffer":0,
			"byteLength":48384,
			"byteOffset":226524,
			"target":34963
		}
	],
	"buffers":[
		{
			"byteLength":274908,
			"uri":"world-e19cc044d2b0650c5a3b322b9c021317.bin"
		}
	]
}
