{
	"asset":{
		"generator":"Khronos glTF Blender I/O v4.1.62",
		"version":"2.0"
	},
	"scene":0,
	"scenes":[
		{
			"name":"Scene",
			"nodes":[
				0,
				1,
				2,
				3,
				4,
				5,
				6,
				7
			]
		}
	],
	"nodes":[
		{
			"mesh":0,
			"name":"Plane",
			"scale":[
				5.111285209655762,
				11.69454574584961,
				9.28140926361084
			],
			"translation":[
				-2.6923885345458984,
				-0.21766233444213867,
				-0.012355402112007141
			]
		},
		{
			"camera":0,
			"name":"Camera",
			"rotation":[
				-0.0037766050081700087,
				0.7070966958999634,
				0.0037766089662909508,
				0.7070966958999634
			],
			"translation":[
				13.352933883666992,
				2.1411285400390625,
				0
			]
		},
		{
			"mesh":1,
			"name":"Cube.006",
			"rotation":[
				0,
				0.03250522539019585,
				0,
				0.9994716048240662
			],
			"scale":[
				0.09557484090328217,
				0.19977469742298126,
				0.10235245525836945
			],
			"translation":[
				-11.359163284301758,
				0.4548008441925049,
				4.06577205657959
			]
		},
		{
			"mesh":2,
			"name":"Cube.008",
			"rotation":[
				0,
				0.03384741395711899,
				0,
				0.9994270205497742
			],
			"scale":[
				0.09556883573532104,
				0.19977469742298126,
				0.10235802084207535
			],
			"translation":[
				-11.977920532226562,
				0.4548008441925049,
				-4.0990095138549805
			]
		},
		{
			"mesh":3,
			"name":"BezierCurve",
			"rotation":[
				0.4834831953048706,
				0.5159883499145508,
				-0.5159884095191956,
				0.4834831655025482
			],
			"scale":[
				1.021891713142395,
				0.4761340618133545,
				0.46728748083114624
			],
			"translation":[
				-10.946571350097656,
				5.8149285316467285,
				3.1160881519317627
			]
		},
		{
			"mesh":4,
			"name":"BezierCurve.001",
			"rotation":[
				0.48864811658859253,
				0.5110998153686523,
				-0.5110998153686523,
				0.48864811658859253
			],
			"scale":[
				1.0489273071289062,
				0.48713982105255127,
				0.3988926112651825
			],
			"translation":[
				-11.230002403259277,
				5.784651279449463,
				3.1468393802642822
			]
		},
		{
			"mesh":5,
			"name":"BezierCurve.002",
			"rotation":[
				0.4908345937728882,
				0.5090004801750183,
				-0.5090004205703735,
				0.4908345937728882
			],
			"scale":[
				1.0223578214645386,
				0.47437596321105957,
				0.46728748083114624
			],
			"translation":[
				-11.991401672363281,
				5.8149285316467285,
				3.229449510574341
			]
		},
		{
			"mesh":6,
			"name":"BezierCurve.003",
			"rotation":[
				0.49222037196159363,
				0.5076605081558228,
				-0.5076605081558228,
				0.49222031235694885
			],
			"scale":[
				1.0489954948425293,
				0.4865345060825348,
				0.4794604778289795
			],
			"translation":[
				-12.274833679199219,
				5.8149285316467285,
				3.2602016925811768
			]
		}
	],
	"cameras":[
		{
			"name":"Camera.001",
			"perspective":{
				"aspectRatio":1.7777777777777777,
				"yfov":0.39959652046304894,
				"zfar":1000,
				"znear":0.10000000149011612
			},
			"type":"perspective"
		}
	],
	"materials":[
		{
			"doubleSided":true,
			"name":"Material.001",
			"pbrMetallicRoughness":{
				"baseColorFactor":[
					0.7991030812263489,
					0.1811639815568924,
					0.03310484439134598,
					1
				],
				"metallicFactor":0,
				"roughnessFactor":0.5
			}
		},
		{
			"doubleSided":true,
			"name":"Material.004",
			"pbrMetallicRoughness":{
				"baseColorFactor":[
					0.8000000715255737,
					0.25049257278442383,
					0.05629054456949234,
					1
				],
				"metallicFactor":0
			}
		},
		{
			"doubleSided":true,
			"name":"Material.005",
			"pbrMetallicRoughness":{
				"baseColorFactor":[
					0.08353060483932495,
					0.08353060483932495,
					0.08353060483932495,
					1
				],
				"metallicFactor":0,
				"roughnessFactor":0.5
			}
		}
	],
	"meshes":[
		{
			"name":"Plane",
			"primitives":[
				{
					"attributes":{
						"POSITION":0,
						"NORMAL":1,
						"TEXCOORD_0":2,
						"TANGENT":3
					},
					"indices":4,
					"material":0
				}
			]
		},
		{
			"name":"Cube.007",
			"primitives":[
				{
					"attributes":{
						"POSITION":5,
						"NORMAL":6,
						"TEXCOORD_0":7,
						"TANGENT":8
					},
					"indices":9,
					"material":1
				}
			]
		},
		{
			"name":"Cube.009",
			"primitives":[
				{
					"attributes":{
						"POSITION":10,
						"NORMAL":11,
						"TEXCOORD_0":12,
						"TANGENT":13
					},
					"indices":9,
					"material":1
				}
			]
		},
		{
			"name":"BezierCurve",
			"primitives":[
				{
					"attributes":{
						"POSITION":14,
						"NORMAL":15,
						"TEXCOORD_0":16,
						"TANGENT":17
					},
					"indices":18,
					"material":2
				}
			]
		},
		{
			"name":"BezierCurve.001",
			"primitives":[
				{
					"attributes":{
						"POSITION":19,
						"NORMAL":20,
						"TEXCOORD_0":21,
						"TANGENT":22
					},
					"indices":18,
					"material":2
				}
			]
		},
		{
			"name":"BezierCurve.002",
			"primitives":[
				{
					"attributes":{
						"POSITION":23,
						"NORMAL":24,
						"TEXCOORD_0":25,
						"TANGENT":26
					},
					"indices":18,
					"material":2
				}
			]
		},
		{
			"name":"BezierCurve.003",
			"primitives":[
				{
					"attributes":{
						"POSITION":27,
						"NORMAL":28,
						"TEXCOORD_0":29,
						"TANGENT":30
					},
					"indices":18,
					"material":2
				}
			]
		}
	],
	"accessors":[
		{
			"bufferView":0,
			"componentType":5126,
			"count":10,
			"max":[
				1,
				0,
				5.210951805114746
			],
			"min":[
				-22.730363845825195,
				0,
				-5.21095085144043
			],
			"type":"VEC3"
		},
		{
			"bufferView":1,
			"componentType":5126,
			"count":10,
			"type":"VEC3"
		},
		{
			"bufferView":2,
			"componentType":5126,
			"count":10,
			"type":"VEC2"
		},
		{
			"bufferView":3,
			"componentType":5126,
			"count":10,
			"type":"VEC4"
		},
		{
			"bufferView":4,
			"componentType":5123,
			"count":24,
			"type":"SCALAR"
		},
		{
			"bufferView":5,
			"componentType":5126,
			"count":8132,
			"max":[
				24.928823471069336,
				29.999996185302734,
				1.0017668008804321
			],
			"min":[
				-24.928974151611328,
				-1,
				-1.0017666816711426
			],
			"type":"VEC3"
		},
		{
			"bufferView":6,
			"componentType":5126,
			"count":8132,
			"type":"VEC3"
		},
		{
			"bufferView":7,
			"componentType":5126,
			"count":8132,
			"type":"VEC2"
		},
		{
			"bufferView":8,
			"componentType":5126,
			"count":8132,
			"type":"VEC4"
		},
		{
			"bufferView":9,
			"componentType":5123,
			"count":12228,
			"type":"SCALAR"
		},
		{
			"bufferView":10,
			"componentType":5126,
			"count":8132,
			"max":[
				24.928823471069336,
				29.999996185302734,
				1.0017668008804321
			],
			"min":[
				-24.928974151611328,
				-1,
				-1.0017666816711426
			],
			"type":"VEC3"
		},
		{
			"bufferView":11,
			"componentType":5126,
			"count":8132,
			"type":"VEC3"
		},
		{
			"bufferView":12,
			"componentType":5126,
			"count":8132,
			"type":"VEC2"
		},
		{
			"bufferView":13,
			"componentType":5126,
			"count":8132,
			"type":"VEC4"
		},
		{
			"bufferView":14,
			"componentType":5126,
			"count":1105,
			"max":[
				16.034425735473633,
				0.2735356092453003,
				1.6367112398147583
			],
			"min":[
				-6.597103595733643,
				-0.705487072467804,
				-0.30873769521713257
			],
			"type":"VEC3"
		},
		{
			"bufferView":15,
			"componentType":5126,
			"count":1105,
			"type":"VEC3"
		},
		{
			"bufferView":16,
			"componentType":5126,
			"count":1105,
			"type":"VEC2"
		},
		{
			"bufferView":17,
			"componentType":5126,
			"count":1105,
			"type":"VEC4"
		},
		{
			"bufferView":18,
			"componentType":5123,
			"count":6048,
			"type":"SCALAR"
		},
		{
			"bufferView":19,
			"componentType":5126,
			"count":1105,
			"max":[
				15.957589149475098,
				0.27352505922317505,
				1.7557377815246582
			],
			"min":[
				-6.526259899139404,
				-0.8074780106544495,
				-0.4604879915714264
			],
			"type":"VEC3"
		},
		{
			"bufferView":20,
			"componentType":5126,
			"count":1105,
			"type":"VEC3"
		},
		{
			"bufferView":21,
			"componentType":5126,
			"count":1105,
			"type":"VEC2"
		},
		{
			"bufferView":22,
			"componentType":5126,
			"count":1105,
			"type":"VEC4"
		},
		{
			"bufferView":23,
			"componentType":5126,
			"count":1105,
			"max":[
				16.02393913269043,
				0.273528516292572,
				1.6366991996765137
			],
			"min":[
				-6.600590705871582,
				-0.8771082758903503,
				-0.30872830748558044
			],
			"type":"VEC3"
		},
		{
			"bufferView":24,
			"componentType":5126,
			"count":1105,
			"type":"VEC3"
		},
		{
			"bufferView":25,
			"componentType":5126,
			"count":1105,
			"type":"VEC2"
		},
		{
			"bufferView":26,
			"componentType":5126,
			"count":1105,
			"type":"VEC4"
		},
		{
			"bufferView":27,
			"componentType":5126,
			"count":1105,
			"max":[
				15.952536582946777,
				0.27352532744407654,
				1.6190310716629028
			],
			"min":[
				-6.52786111831665,
				-0.8889738321304321,
				-0.3087247610092163
			],
			"type":"VEC3"
		},
		{
			"bufferView":28,
			"componentType":5126,
			"count":1105,
			"type":"VEC3"
		},
		{
			"bufferView":29,
			"componentType":5126,
			"count":1105,
			"type":"VEC2"
		},
		{
			"bufferView":30,
			"componentType":5126,
			"count":1105,
			"type":"VEC4"
		}
	],
	"bufferViews":[
		{
			"buffer":0,
			"byteLength":120,
			"byteOffset":0,
			"target":34962
		},
		{
			"buffer":0,
			"byteLength":120,
			"byteOffset":120,
			"target":34962
		},
		{
			"buffer":0,
			"byteLength":80,
			"byteOffset":240,
			"target":34962
		},
		{
			"buffer":0,
			"byteLength":160,
			"byteOffset":320,
			"target":34962
		},
		{
			"buffer":0,
			"byteLength":48,
			"byteOffset":480,
			"target":34963
		},
		{
			"buffer":0,
			"byteLength":97584,
			"byteOffset":528,
			"target":34962
		},
		{
			"buffer":0,
			"byteLength":97584,
			"byteOffset":98112,
			"target":34962
		},
		{
			"buffer":0,
			"byteLength":65056,
			"byteOffset":195696,
			"target":34962
		},
		{
			"buffer":0,
			"byteLength":130112,
			"byteOffset":260752,
			"target":34962
		},
		{
			"buffer":0,
			"byteLength":24456,
			"byteOffset":390864,
			"target":34963
		},
		{
			"buffer":0,
			"byteLength":97584,
			"byteOffset":415320,
			"target":34962
		},
		{
			"buffer":0,
			"byteLength":97584,
			"byteOffset":512904,
			"target":34962
		},
		{
			"buffer":0,
			"byteLength":65056,
			"byteOffset":610488,
			"target":34962
		},
		{
			"buffer":0,
			"byteLength":130112,
			"byteOffset":675544,
			"target":34962
		},
		{
			"buffer":0,
			"byteLength":13260,
			"byteOffset":805656,
			"target":34962
		},
		{
			"buffer":0,
			"byteLength":13260,
			"byteOffset":818916,
			"target":34962
		},
		{
			"buffer":0,
			"byteLength":8840,
			"byteOffset":832176,
			"target":34962
		},
		{
			"buffer":0,
			"byteLength":17680,
			"byteOffset":841016,
			"target":34962
		},
		{
			"buffer":0,
			"byteLength":12096,
			"byteOffset":858696,
			"target":34963
		},
		{
			"buffer":0,
			"byteLength":13260,
			"byteOffset":870792,
			"target":34962
		},
		{
			"buffer":0,
			"byteLength":13260,
			"byteOffset":884052,
			"target":34962
		},
		{
			"buffer":0,
			"byteLength":8840,
			"byteOffset":897312,
			"target":34962
		},
		{
			"buffer":0,
			"byteLength":17680,
			"byteOffset":906152,
			"target":34962
		},
		{
			"buffer":0,
			"byteLength":13260,
			"byteOffset":923832,
			"target":34962
		},
		{
			"buffer":0,
			"byteLength":13260,
			"byteOffset":937092,
			"target":34962
		},
		{
			"buffer":0,
			"byteLength":8840,
			"byteOffset":950352,
			"target":34962
		},
		{
			"buffer":0,
			"byteLength":17680,
			"byteOffset":959192,
			"target":34962
		},
		{
			"buffer":0,
			"byteLength":13260,
			"byteOffset":976872,
			"target":34962
		},
		{
			"buffer":0,
			"byteLength":13260,
			"byteOffset":990132,
			"target":34962
		},
		{
			"buffer":0,
			"byteLength":8840,
			"byteOffset":1003392,
			"target":34962
		},
		{
			"buffer":0,
			"byteLength":17680,
			"byteOffset":1012232,
			"target":34962
		}
	],
	"buffers":[
		{
			"byteLength":1029912,
			"uri":"world-31b9d5baf57ac6a4231d337bfd679579.bin"
		}
	]
}
